<svg width="25" xmlns="http://www.w3.org/2000/svg" version="1.1" viewBox="-5.0 -10.0 110.0 135.0" fill="rgb(223, 232, 244)">
 <path d="m39.215 15.625c-1.3047 0-2.3633 1.0586-2.3633 2.3594 0 1.3047 1.0586 2.3633 2.3633 2.3633h21.57c1.3008 0 2.3594-1.0586 2.3594-2.3594 0-1.3047-1.0586-2.3633-2.3594-2.3633zm-21.355 8.707v0.003907h-0.003906l-0.007813 0.003906c0-0.003906 0-0.003906-0.003906-0.003906-0.62109 0-1.2148 0.25-1.6523 0.6875-0.44141 0.44531-0.69141 1.043-0.69141 1.6719v7.6016c0 0.62891 0.25 1.2305 0.69141 1.6719s1.043 0.69141 1.668 0.69141l64.277-0.003906c1.3047 0 2.3594-1.0547 2.3594-2.3594v-7.6016c0-1.3047-1.0547-2.3594-2.3594-2.3594l-64.277-0.003907v0.003907zm47.203 20.441v0.003906c0.050781-0.003906 0.097656 0 0.14844 0.003906 1.3008 0.078125 2.293 1.1992 2.2109 2.5l-1.4219 22.824c-0.078125 1.25-1.1172 2.2109-2.3555 2.2109-0.050781 0-0.097656 0-0.14844-0.003906-1.3008-0.078125-2.293-1.1992-2.2109-2.5039l1.4219-22.82c0.078125-1.25 1.1172-2.2148 2.3555-2.2148v0.003906zm-30.129 0v0.003906c1.2383-0.003906 2.2773 0.96094 2.3555 2.2109l1.4219 22.82c0.082031 1.3047-0.91016 2.4258-2.2109 2.5039-0.046875 0.003906-0.097656 0.003906-0.14844 0.003906-1.2383 0-2.2773-0.96094-2.3555-2.2109l-1.4219-22.824c-0.078125-1.3008 0.91016-2.4219 2.2109-2.5 0.050782-0.003906 0.10156-0.007812 0.14844-0.007812v0.003906zm15.066-0.019532c1.3008 0 2.3594 1.0547 2.3594 2.3594v22.867c0 1.3008-1.0586 2.3594-2.3594 2.3594-1.3047 0-2.3633-1.0586-2.3633-2.3594v-22.867c0-1.3047 1.0586-2.3594 2.3633-2.3594zm-29.551-5.2422v0.003906l2.625 38.43c0.16016 3.5625 3.0938 6.4023 6.6914 6.418h40.477c3.5977-0.015625 6.5312-2.8555 6.6914-6.418l2.625-38.438z"/></svg>