<svg width="28" xmlns="http://www.w3.org/2000/svg" version="1.1" viewBox="-2.0 5.0 95.0 95.0" fill="#3262a9">
 <g>
  <path d="m73.371 19.93c-1.1875-1.0898-2.7656-1.6445-4.3711-1.5391l-35.289 2.6992c-0.33984 0.023437-0.67188 0.074218-1 0.16016h-0.13281c-0.3125 0.089844-0.62109 0.20312-0.91797 0.33984l-0.12109 0.070312c-0.27734 0.13672-0.54687 0.29688-0.80078 0.48047l-0.12109 0.10156 0.003906-0.003907c-0.25 0.18359-0.48047 0.38672-0.69141 0.61328l-0.089844 0.10938c-0.21094 0.23047-0.39844 0.47656-0.57031 0.73828l-0.078125 0.12891c-0.16797 0.26953-0.3125 0.55078-0.42969 0.84375l-0.050781 0.14062v-0.003906c-0.12109 0.32422-0.21094 0.66016-0.26953 1-0.0625 0.35938-0.097656 0.71875-0.10156 1.082v28.918c-3.375 0.015625-6.668 1.0625-9.4297 3-2.9062 1.9297-5.125 4.7305-6.332 8-1.4141 3.5547-0.92578 7.5859 1.2969 10.703 2.2266 3.1133 5.8828 4.8789 9.7031 4.6875 3.3125-0.058594 6.5273-1.1016 9.2422-3 3.9258-2.5312 6.4961-6.6953 7-11.34 0.10156-0.41016 0.16406-0.82812 0.17969-1.25v-22.859l23.551-1.75v7.4609h-0.19922c-3.3086 0.054687-6.5234 1.0977-9.2305 3-2.9844 1.9844-5.2344 4.8906-6.4023 8.2773-1.2539 3.4453-0.74609 7.2891 1.3633 10.289s5.5508 4.7773 9.2188 4.7617c3.5 0.0625 6.9258-0.98437 9.7891-3 3.918-2.5352 6.4883-6.6992 7-11.34 0.09375-0.42188 0.14062-0.85547 0.14062-1.2891v-36c-0.015625-1.6055-0.6875-3.1328-1.8594-4.2305zm-2.6016 40.27c0.011719 0.074219 0.011719 0.14844 0 0.22266 0.078125 3.1992-1.8906 6.5781-5.1289 8.7891-2.0898 1.4805-4.5977 2.2539-7.1602 2.2109-2.3242 0.082031-4.5312-1.0117-5.8633-2.918-1.332-1.9023-1.6094-4.3516-0.73828-6.5039 0.87891-2.457 2.5273-4.5625 4.6992-6 3.7812-2.5781 8.4883-2.8984 11.441-0.83984v-18l-32.52 2.4492v27c0.003906 0.070313 0.003906 0.14062 0 0.21094 0.070312 3.1992-1.8984 6.5898-5.1406 8.8008-1.9844 1.3906-4.3359 2.1562-6.7578 2.1992-2.4688 0.11328-4.8281-1.0117-6.293-3-1.2656-1.9609-1.5078-4.4102-0.64844-6.582 0.89453-2.3945 2.5234-4.4492 4.6602-5.8594 2.0938-1.4727 4.5977-2.2461 7.1602-2.207 1.5273 0.027344 3.0156 0.5 4.2812 1.3594v-34.609c-0.011719-0.085937-0.011719-0.16797 0-0.25 0.015625-0.082031 0.039062-0.16406 0.066406-0.24219 0.050781-0.082032 0.10547-0.16016 0.17188-0.23047 0.046875-0.070313 0.097656-0.13672 0.14844-0.19922 0.058593-0.058594 0.12109-0.11328 0.19141-0.16016 0.0625-0.058594 0.13281-0.10547 0.21094-0.14062 0.074219-0.039063 0.15625-0.066407 0.23828-0.089844 0.085938-0.03125 0.17969-0.046875 0.26953-0.050781l35.281-2.7109v0.003906c0.36719-0.015624 0.72656 0.11328 1 0.35938 0.28516 0.25391 0.44531 0.61719 0.44141 1z"/>
  <path d="m28.359 62.941h-0.28125c-1.8711 0.046875-3.6914 0.65234-5.2188 1.7383-1.6523 1.0742-2.918 2.6484-3.6211 4.4922-0.5625 1.3438-0.44141 2.875 0.32031 4.1172 1.6406 2.3984 5.7812 2.4297 9.2305 0.070313 1.9336-1.2227 3.3203-3.1406 3.8711-5.3594 0.25-1.1055 0.042969-2.2656-0.57031-3.2188-0.87109-1.1836-2.2617-1.8711-3.7305-1.8398z"/>
  <path d="m67.289 25.77-31.16 2.3789c-0.35156 0.03125-0.625 0.32812-0.62891 0.67969v7.2812c0 0.19141 0.078125 0.37109 0.21484 0.5 0.14062 0.12891 0.32812 0.19531 0.51562 0.17969l31.16-2.3789c0.35156-0.03125 0.625-0.32422 0.62891-0.67969v-7.2812c0-0.1875-0.078125-0.37109-0.21484-0.5-0.14063-0.12891-0.32422-0.19141-0.51563-0.17969z"/>
  <path d="m63.379 56.512c-3.8633 0.14844-7.2969 2.5195-8.8086 6.0781-0.69141 1.3398-0.60547 2.9453 0.22266 4.2031 0.83203 1.2617 2.2734 1.9727 3.7773 1.8672 3.957-0.046875 7.5117-2.4258 9.0703-6.0586 0.625-1.3828 0.52344-2.9883-0.26953-4.2812-0.94141-1.2344-2.4414-1.918-3.9922-1.8086z"/>
 </g></svg>